<svg width="110" height="93" viewBox="0 0 110 93" fill="none" xmlns="http://www.w3.org/2000/svg">
<path d="M1.24038 26.891C1.24038 26.2497 1.43771 25.7193 1.83238 25.3C2.22705 24.8807 2.67105 24.6587 3.16438 24.634C3.58371 24.5847 3.91671 24.6833 4.16338 24.93C4.41005 25.152 4.53338 25.4357 4.53338 25.781C4.50871 26.0523 4.42238 26.2743 4.27438 26.447C4.15105 26.6197 3.95371 26.8047 3.68238 27.002C3.48505 27.1253 3.31238 27.261 3.16438 27.409C3.04105 27.557 2.99171 27.7297 3.01638 27.927C3.01638 28.3217 3.31238 28.6547 3.90438 28.926C4.52105 29.1727 5.43371 29.2467 6.64238 29.148C7.35771 29.074 8.06071 28.9383 8.75138 28.741C9.46671 28.519 10.145 28.26 10.7864 27.964C11.4524 27.668 12.0814 27.3473 12.6734 27.002C13.2654 26.632 13.8204 26.2743 14.3384 25.929C14.1657 25.781 13.956 25.5713 13.7094 25.3C13.4874 25.004 13.2654 24.671 13.0434 24.301C12.846 23.931 12.6734 23.5363 12.5254 23.117C12.3774 22.673 12.3034 22.2167 12.3034 21.748C12.328 20.638 12.735 19.713 13.5244 18.973C14.3137 18.2083 15.3744 17.8383 16.7064 17.863C17.1997 17.8877 17.656 17.9987 18.0754 18.196C18.4947 18.3687 18.8647 18.5907 19.1854 18.862C19.5307 19.1087 19.8144 19.3923 20.0364 19.713C20.283 20.009 20.4557 20.2803 20.5544 20.527C20.8257 20.2557 21.097 19.9967 21.3684 19.75C21.6397 19.4787 21.8864 19.2443 22.1084 19.047C23.095 18.159 24.057 17.3327 24.9944 16.568C25.9564 15.7787 26.906 15.1373 27.8434 14.644C28.5587 14.2493 29.2987 13.9163 30.0634 13.645C30.828 13.3737 31.568 13.238 32.2834 13.238C32.6287 13.238 32.9 13.2873 33.0974 13.386C33.3194 13.46 33.4797 13.534 33.5784 13.608C33.7017 13.7067 33.788 13.8053 33.8374 13.904C33.8867 14.0027 33.8867 14.0767 33.8374 14.126C33.8127 14.126 33.677 14.0397 33.4304 13.867C33.3564 13.8177 33.233 13.7683 33.0604 13.719C32.8877 13.6697 32.7397 13.645 32.6164 13.645C32.419 13.645 32.2094 13.682 31.9874 13.756C31.7654 13.83 31.5804 13.9287 31.4324 14.052C31.235 14.2247 31.0007 14.4467 30.7294 14.718C30.4827 14.9893 30.2237 15.2853 29.9524 15.606C29.681 15.902 29.4097 16.2227 29.1384 16.568C28.8917 16.9133 28.6574 17.234 28.4354 17.53C27.276 19.1333 26.092 20.8477 24.8834 22.673C23.6994 24.4737 22.577 26.2373 21.5164 27.964C22.1577 27.9147 22.8607 27.705 23.6254 27.335C24.02 27.1377 24.4024 26.8787 24.7724 26.558C25.1424 26.2373 25.4507 25.966 25.6974 25.744C25.8207 25.6207 25.944 25.5097 26.0674 25.411C26.1907 25.3123 26.277 25.2877 26.3264 25.337C26.4004 25.411 26.2647 25.6207 25.9194 25.966C25.648 26.2127 25.3274 26.4963 24.9574 26.817C24.612 27.113 24.205 27.3843 23.7364 27.631C23.3417 27.8283 22.9224 27.9887 22.4784 28.112C22.059 28.2353 21.6767 28.3093 21.3314 28.334C21.06 28.6053 20.8134 28.815 20.5914 28.963C20.394 29.111 20.1597 29.2097 19.8884 29.259C19.617 29.3083 19.4074 29.3207 19.2594 29.296C19.136 29.2713 19.0497 29.222 19.0004 29.148C18.951 29.0987 18.9387 29.037 18.9634 28.963C18.988 28.8643 19.0127 28.7903 19.0374 28.741C19.0867 28.6177 19.136 28.519 19.1854 28.445C19.2347 28.3463 19.284 28.26 19.3334 28.186C18.988 28.1367 18.5687 28.0503 18.0754 27.927C17.582 27.779 17.1874 27.6433 16.8914 27.52C16.4967 27.372 16.0897 27.1747 15.6704 26.928C15.2757 26.6813 14.955 26.447 14.7084 26.225C14.363 26.4717 13.9067 26.78 13.3394 27.15C12.772 27.4953 12.1184 27.853 11.3784 28.223C10.663 28.5683 9.88605 28.8643 9.04738 29.111C8.23338 29.3823 7.39471 29.555 6.53138 29.629C5.81605 29.6783 5.13771 29.6537 4.49638 29.555C3.85505 29.481 3.28771 29.333 2.79438 29.111C2.32571 28.889 1.94338 28.6053 1.64738 28.26C1.37605 27.89 1.24038 27.446 1.24038 26.928V26.891ZM21.1464 25.337C21.3437 24.9917 21.6274 24.5477 21.9974 24.005C22.3674 23.4623 22.762 22.895 23.1814 22.303C23.6007 21.6863 24.02 21.082 24.4394 20.49C24.8834 19.898 25.2657 19.3923 25.5864 18.973C26.721 17.493 27.7817 16.3337 28.7684 15.495C29.755 14.6563 30.68 14.0273 31.5434 13.608V13.571C31.124 13.6203 30.5937 13.7683 29.9524 14.015C29.311 14.237 28.6697 14.5207 28.0284 14.866C27.165 15.3593 26.3017 15.9513 25.4384 16.642C24.575 17.3327 23.7857 17.9987 23.0704 18.64C22.6757 19.01 22.281 19.3923 21.8864 19.787C21.4917 20.1817 21.1094 20.5517 20.7394 20.897C20.838 21.0943 20.9244 21.415 20.9984 21.859C21.097 22.2783 21.171 22.747 21.2204 23.265C21.2697 23.9557 21.2327 24.6463 21.1094 25.337H21.1464ZM16.7064 18.418C16.2377 18.418 15.8184 18.5167 15.4484 18.714C15.0784 18.9113 14.7577 19.1703 14.4864 19.491C14.2397 19.787 14.0424 20.1447 13.8944 20.564C13.771 20.9587 13.697 21.378 13.6724 21.822C13.6477 22.5867 13.7834 23.3143 14.0794 24.005C14.3754 24.6957 14.6467 25.189 14.8934 25.485C15.2634 25.1643 15.6827 24.819 16.1514 24.449C16.62 24.0543 17.101 23.635 17.5944 23.191C18.4824 22.4263 19.358 21.6247 20.2214 20.786C19.8514 20.0953 19.3704 19.528 18.7784 19.084C18.1864 18.64 17.508 18.418 16.7434 18.418H16.7064ZM15.1524 25.855C15.3497 26.077 15.6334 26.299 16.0034 26.521C16.3734 26.743 16.731 26.9403 17.0764 27.113C17.3724 27.2363 17.7547 27.372 18.2234 27.52C18.7167 27.668 19.136 27.7667 19.4814 27.816C19.5554 27.6927 19.6417 27.5447 19.7404 27.372C19.8637 27.1747 19.9747 26.9897 20.0734 26.817C20.1967 26.6443 20.3077 26.4963 20.4064 26.373C20.505 26.225 20.5667 26.114 20.5914 26.04C20.7147 25.7687 20.7887 25.3863 20.8134 24.893C20.8627 24.3997 20.8627 23.8693 20.8134 23.302C20.764 22.9073 20.7024 22.525 20.6284 22.155C20.579 21.785 20.4927 21.4643 20.3694 21.193C19.9254 21.6123 19.4937 22.0193 19.0744 22.414C18.655 22.8087 18.2357 23.1787 17.8164 23.524C17.323 23.968 16.8544 24.375 16.4104 24.745C15.991 25.115 15.5717 25.4727 15.1524 25.818V25.855ZM36.7797 25.411C36.7057 25.7563 35.9041 26.521 34.3747 27.705C33.1414 28.667 32.1054 29.148 31.2667 29.148C30.5761 29.148 30.2307 28.8397 30.2307 28.223C30.2307 27.779 30.6624 26.9773 31.5257 25.818C30.2924 26.928 29.4661 27.631 29.0467 27.927C27.9367 28.741 27.0117 29.148 26.2717 29.148C25.5564 29.148 25.1987 28.8643 25.1987 28.297C25.1987 28.149 25.2111 28.001 25.2357 27.853H25.2727C25.4701 27.2117 25.9141 26.891 26.6047 26.891C27.0241 26.891 27.2337 27.0143 27.2337 27.261C27.2337 27.335 27.2091 27.4583 27.1597 27.631C27.1104 27.8037 27.0857 27.9393 27.0857 28.038C27.0857 28.0627 27.1104 28.149 27.1597 28.297C27.2337 28.3217 27.3077 28.334 27.3817 28.334C27.8504 28.334 29.0221 27.5447 30.8967 25.966C32.0561 24.9547 33.2277 23.9433 34.4117 22.932C34.6091 22.784 35.0037 22.71 35.5957 22.71C35.7931 22.71 35.8917 22.7593 35.8917 22.858C35.8917 22.9073 35.2627 23.6843 34.0047 25.189C32.7467 26.6937 32.1177 27.6433 32.1177 28.038C32.1917 28.26 32.2781 28.371 32.3767 28.371C32.7961 28.371 33.5484 27.9023 34.6337 26.965C35.7191 26.003 36.4344 25.485 36.7797 25.411ZM38.5263 28.778C38.7729 28.778 39.1923 28.6917 39.7843 28.519C40.3763 28.3463 41.0793 27.9763 41.8933 27.409C42.2386 27.1623 42.6086 26.891 43.0033 26.595C43.4226 26.2743 43.8049 25.9537 44.1503 25.633C44.3476 25.4603 44.4833 25.411 44.5573 25.485C44.6313 25.5837 44.5326 25.744 44.2613 25.966C44.0146 26.188 43.6446 26.4963 43.1513 26.891C42.6826 27.2857 42.2756 27.594 41.9303 27.816C40.4009 28.8273 39.0073 29.333 37.7493 29.333C36.3926 29.333 35.7389 28.8397 35.7883 27.853C35.8129 27.1623 36.1829 26.3977 36.8983 25.559L36.8613 25.522C36.8119 25.5713 36.7009 25.67 36.5283 25.818C36.3803 25.966 36.2446 26.0893 36.1213 26.188C35.9486 26.336 35.8253 26.373 35.7513 26.299C35.7019 26.2497 35.7143 26.188 35.7883 26.114C35.8376 26.04 35.8993 25.966 35.9733 25.892C36.2199 25.67 36.4419 25.485 36.6393 25.337C36.8366 25.1643 37.0709 24.9793 37.3423 24.782C37.5396 24.634 37.7986 24.4613 38.1193 24.264C38.4646 24.0667 38.8099 23.8693 39.1553 23.672C39.6979 23.4007 40.2406 23.1663 40.7833 22.969C41.3259 22.747 41.8439 22.636 42.3373 22.636H42.3743C42.7936 22.636 43.0773 22.747 43.2253 22.969C43.3979 23.1663 43.4719 23.3883 43.4473 23.635C43.3979 24.1283 43.1266 24.56 42.6333 24.93C42.1646 25.3 41.6466 25.6207 41.0793 25.892C40.5366 26.1633 39.9693 26.3977 39.3773 26.595C38.8099 26.7923 38.3166 26.9527 37.8973 27.076C37.7493 27.372 37.6753 27.6557 37.6753 27.927C37.6753 28.4943 37.9589 28.778 38.5263 28.778ZM38.1193 26.669C38.4893 26.5703 38.8963 26.4347 39.3403 26.262C39.8089 26.0647 40.2406 25.8303 40.6353 25.559C41.1039 25.2383 41.4616 24.9053 41.7083 24.56C41.9796 24.2147 42.1276 23.9063 42.1523 23.635C42.2016 23.2897 42.0536 23.117 41.7083 23.117C41.3876 23.117 40.8449 23.4747 40.0803 24.19C39.7843 24.4613 39.4389 24.856 39.0443 25.374C38.6496 25.8673 38.3413 26.299 38.1193 26.669ZM56.2091 25.374C56.2091 25.4973 55.8267 25.9043 55.0621 26.595C54.4454 27.1377 53.9767 27.5323 53.6561 27.779C52.3734 28.741 51.3127 29.222 50.4741 29.222C49.9314 29.222 49.5614 29.0247 49.3641 28.63C49.2654 28.3833 49.2161 27.9517 49.2161 27.335C49.2161 26.4223 49.0187 26.04 48.6241 26.188C48.8707 25.966 49.2407 25.855 49.7341 25.855C50.4001 25.855 50.8071 26.2743 50.9551 27.113C51.1277 27.927 51.3621 28.334 51.6581 28.334C52.2007 28.334 53.0517 27.8407 54.2111 26.854C55.3951 25.8673 56.0611 25.3617 56.2091 25.337V25.374ZM54.6551 23.709C54.6551 24.449 54.2727 24.819 53.5081 24.819C52.9407 24.819 52.6571 24.6957 52.6571 24.449C52.6571 24.3997 52.6941 24.2887 52.7681 24.116C52.8667 23.9187 52.9161 23.7707 52.9161 23.672C52.9161 23.3267 52.7311 23.154 52.3611 23.154C51.4484 23.154 49.8944 24.153 47.6991 26.151C45.5284 28.149 44.1841 29.148 43.6661 29.148C43.3701 29.148 43.1727 29.111 43.0741 29.037C43.0741 29.0123 43.0741 28.963 43.0741 28.889C43.0741 28.2477 43.9497 26.8417 45.7011 24.671V24.634C44.7884 25.5467 44.2334 26.003 44.0361 26.003C43.9867 26.003 43.9621 25.9907 43.9621 25.966C44.0114 25.7193 44.6281 25.1027 45.8121 24.116C47.0207 23.1293 47.7731 22.636 48.0691 22.636C48.5377 22.636 48.7721 22.784 48.7721 23.08V23.154C48.1307 24.0667 47.1441 25.4233 45.8121 27.224L45.8861 27.261C47.5141 25.8057 48.6241 24.856 49.2161 24.412C50.7701 23.2527 52.0774 22.673 53.1381 22.673C54.1494 22.673 54.6551 23.0183 54.6551 23.709ZM57.1534 29.333C55.7721 29.333 55.1184 28.815 55.1924 27.779C55.2418 27.409 55.3651 27.039 55.5624 26.669C55.7351 26.2743 55.9694 25.9043 56.2654 25.559L56.2284 25.522C56.1791 25.5713 56.0928 25.6577 55.9694 25.781C55.8461 25.8797 55.7228 25.9783 55.5994 26.077C55.3528 26.299 55.1924 26.373 55.1184 26.299C55.0691 26.2497 55.0814 26.188 55.1554 26.114C55.2048 26.04 55.2664 25.966 55.3404 25.892C55.5871 25.67 55.8091 25.485 56.0064 25.337C56.2038 25.1643 56.4381 24.9793 56.7094 24.782C56.9068 24.634 57.1658 24.4613 57.4864 24.264C57.8318 24.042 58.1648 23.8447 58.4854 23.672C59.1268 23.3267 59.7311 23.0553 60.2984 22.858C60.8658 22.6607 61.3961 22.599 61.8894 22.673C62.3088 22.747 62.5924 22.9197 62.7404 23.191C62.9131 23.4377 62.9624 23.7337 62.8884 24.079C62.8144 24.4243 62.6418 24.7203 62.3704 24.967C62.1238 25.2137 61.8771 25.337 61.6304 25.337C61.3098 25.337 61.1371 25.226 61.1124 25.004C61.0878 24.782 61.1618 24.5353 61.3344 24.264C61.5318 23.9187 61.6551 23.6473 61.7044 23.45C61.7538 23.228 61.6674 23.0923 61.4454 23.043C61.0014 22.969 60.2368 23.487 59.1514 24.597C58.6581 25.0903 58.2018 25.6577 57.7824 26.299C57.3631 26.9157 57.1288 27.446 57.0794 27.89C57.0054 28.4573 57.2891 28.741 57.9304 28.741C58.1771 28.741 58.5964 28.667 59.1884 28.519C59.8051 28.3463 60.5204 27.9763 61.3344 27.409C61.6798 27.1623 62.0621 26.8787 62.4814 26.558C62.9008 26.2127 63.2584 25.9043 63.5544 25.633C63.7518 25.4603 63.8874 25.411 63.9614 25.485C64.0108 25.559 63.9121 25.7193 63.6654 25.966C63.4188 26.188 63.0734 26.484 62.6294 26.854C62.2101 27.224 61.8278 27.52 61.4824 27.742C60.8411 28.186 60.1258 28.5683 59.3364 28.889C58.5471 29.185 57.8318 29.333 57.1904 29.333H57.1534ZM70.8024 24.079C71.2464 23.6103 71.6287 23.265 71.9494 23.043C72.2947 22.7963 72.6154 22.673 72.9114 22.673C73.3061 22.6483 73.5281 22.6853 73.5774 22.784C73.6514 22.8827 73.5897 23.043 73.3924 23.265C73.1457 23.5363 72.8374 23.894 72.4674 24.338C72.0974 24.7573 71.7151 25.2137 71.3204 25.707C71.0737 26.003 70.8394 26.3113 70.6174 26.632C70.3954 26.928 70.1981 27.224 70.0254 27.52C69.7787 27.964 69.7417 28.2477 69.9144 28.371C70.0131 28.445 70.1364 28.4573 70.2844 28.408C70.4571 28.3587 70.6174 28.297 70.7654 28.223C70.9627 28.1243 71.2094 27.9763 71.5054 27.779C71.8261 27.557 72.1344 27.3227 72.4304 27.076C72.8251 26.7553 73.1704 26.4717 73.4664 26.225C73.7624 25.9783 74.0091 25.7563 74.2064 25.559C74.3297 25.4603 74.4284 25.3863 74.5024 25.337C74.6011 25.263 74.6751 25.2507 74.7244 25.3C74.7984 25.374 74.6381 25.596 74.2434 25.966C73.9967 26.188 73.6761 26.4717 73.2814 26.817C72.8867 27.1623 72.5167 27.4707 72.1714 27.742C71.8014 28.038 71.3327 28.3587 70.7654 28.704C70.1981 29.0493 69.6061 29.222 68.9894 29.222C68.6441 29.222 68.3851 29.148 68.2124 29C68.0397 28.852 67.9411 28.667 67.9164 28.445C67.8917 28.2477 67.9287 28.0257 68.0274 27.779C68.1261 27.5323 68.2617 27.3103 68.4344 27.113L68.3974 27.076C68.1507 27.298 67.8671 27.5323 67.5464 27.779C67.2257 28.001 66.8804 28.223 66.5104 28.445C66.1651 28.6423 65.7951 28.815 65.4004 28.963C65.0304 29.111 64.6727 29.1973 64.3274 29.222C63.9081 29.2467 63.5381 29.1603 63.2174 28.963C62.8721 28.741 62.7364 28.334 62.8104 27.742C62.8597 27.4707 62.9584 27.187 63.1064 26.891C63.2544 26.5703 63.5011 26.2127 63.8464 25.818L63.8094 25.781C63.7601 25.8303 63.6984 25.892 63.6244 25.966C63.5504 26.04 63.4517 26.1263 63.3284 26.225C63.1557 26.3483 63.0447 26.3853 62.9954 26.336C62.9214 26.2373 63.0941 26.003 63.5134 25.633C63.5627 25.5837 63.7107 25.4603 63.9574 25.263C64.2041 25.041 64.4261 24.8683 64.6234 24.745C64.8207 24.6217 65.0674 24.4737 65.3634 24.301C65.6594 24.1037 65.9801 23.9063 66.3254 23.709C67.0407 23.339 67.7067 23.0553 68.3234 22.858C68.9647 22.6607 69.5321 22.599 70.0254 22.673C70.3954 22.7223 70.6421 22.895 70.7654 23.191C70.9134 23.4623 70.9257 23.7583 70.8024 24.079ZM69.8774 23.043C69.5074 23.043 69.0141 23.265 68.3974 23.709C67.7807 24.153 67.1394 24.708 66.4734 25.374C65.7087 26.114 65.1537 26.7307 64.8084 27.224C64.4877 27.6927 64.3521 28.0503 64.4014 28.297C64.4261 28.5437 64.5864 28.667 64.8824 28.667C65.2277 28.667 65.7087 28.4943 66.3254 28.149C66.9421 27.8037 67.4971 27.3967 67.9904 26.928C68.2864 26.6813 68.5824 26.3977 68.8784 26.077C69.1744 25.7563 69.4457 25.448 69.6924 25.152C69.9391 24.856 70.1364 24.5847 70.2844 24.338C70.4571 24.0667 70.5434 23.857 70.5434 23.709C70.5681 23.265 70.3461 23.043 69.8774 23.043ZM86.2716 25.596C85.7782 26.6567 84.9396 27.557 83.7556 28.297C82.7689 28.9383 81.9549 29.259 81.3136 29.259C80.4749 29.259 80.0556 28.9013 80.0556 28.186C80.0556 27.6433 80.3022 27.039 80.7956 26.373C80.0309 26.9157 79.2169 27.187 78.3536 27.187C77.7122 27.187 77.2559 26.9773 76.9846 26.558C76.6392 27.1007 76.0719 27.8653 75.2826 28.852C74.8386 29.0493 74.4192 29.148 74.0246 29.148C73.4819 29.148 73.2106 29.0493 73.2106 28.852C73.2106 28.5067 73.7656 27.6557 74.8756 26.299C75.8129 25.115 76.5529 24.264 77.0956 23.746V23.709C75.4676 25.041 74.5549 25.707 74.3576 25.707C74.3082 25.707 74.2836 25.6823 74.2836 25.633C74.5056 25.1397 75.1716 24.56 76.2816 23.894C77.3916 23.2033 78.2179 22.858 78.7606 22.858C79.2292 22.858 79.4636 22.9197 79.4636 23.043C79.4636 23.1417 78.8839 23.9433 77.7246 25.448C77.9219 25.5713 78.0206 25.7317 78.0206 25.929C78.0206 26.0523 77.9589 26.188 77.8356 26.336C77.7369 26.4593 77.6876 26.5457 77.6876 26.595C77.6876 26.817 77.8479 26.928 78.1686 26.928C79.1306 26.928 80.0309 26.5827 80.8696 25.892C80.9189 25.8673 81.5602 25.2137 82.7936 23.931C83.4842 23.2157 84.1009 22.858 84.6436 22.858C85.1616 22.858 85.4206 22.932 85.4206 23.08C85.4206 23.1293 84.8532 23.857 83.7186 25.263C82.6086 26.6443 82.0536 27.52 82.0536 27.89C82.0536 28.0627 82.0906 28.1983 82.1646 28.297C82.2386 28.371 82.3249 28.408 82.4236 28.408C82.8676 28.408 84.0762 27.4583 86.0496 25.559H86.1606C86.2099 25.559 86.2469 25.5713 86.2716 25.596ZM87.8785 31.294C87.3358 31.664 86.8055 31.997 86.2875 32.293C85.7695 32.6137 85.2268 32.9467 84.6595 33.292C84.0675 33.6373 83.4385 34.0197 82.7725 34.439C82.1065 34.8583 81.3418 35.3517 80.4785 35.919C79.6891 36.437 78.9491 36.9797 78.2585 37.547C77.5431 38.1143 76.9141 38.6817 76.3715 39.249C75.8288 39.8163 75.3848 40.3713 75.0395 40.914C74.6941 41.4813 74.5091 41.9993 74.4845 42.468C74.4598 43.0107 74.6448 43.3437 75.0395 43.467C75.3355 43.5657 75.7178 43.541 76.1865 43.393C76.6305 43.245 77.0251 43.0723 77.3705 42.875C78.2091 42.3817 79.1835 41.617 80.2935 40.581C81.3788 39.545 82.6615 38.0897 84.1415 36.215C84.8815 35.2777 85.5968 34.3527 86.2875 33.44C86.9781 32.5273 87.5085 31.812 87.8785 31.294ZM92.2075 23.043C91.8375 23.043 91.3441 23.265 90.7275 23.709C90.1108 24.153 89.4695 24.708 88.8035 25.374C88.0388 26.114 87.4838 26.7307 87.1385 27.224C86.8178 27.6927 86.6821 28.0503 86.7315 28.297C86.7561 28.5437 86.9165 28.667 87.2125 28.667C87.5578 28.667 88.0388 28.4943 88.6555 28.149C89.2721 27.8037 89.8271 27.3967 90.3205 26.928C90.6165 26.6813 90.9125 26.3977 91.2085 26.077C91.5045 25.7563 91.7758 25.448 92.0225 25.152C92.2691 24.856 92.4665 24.5847 92.6145 24.338C92.7871 24.0667 92.8735 23.857 92.8735 23.709C92.8981 23.265 92.6761 23.043 92.2075 23.043ZM88.6555 23.709C89.3215 23.3637 89.9751 23.0923 90.6165 22.895C91.2825 22.673 91.8621 22.599 92.3555 22.673C92.7255 22.7223 92.9721 22.8703 93.0955 23.117C93.2188 23.3637 93.2558 23.635 93.2065 23.931H93.2435C93.6628 23.4623 93.9958 23.1417 94.2425 22.969C94.4891 22.7717 94.7481 22.673 95.0195 22.673C95.7101 22.673 95.8705 22.8703 95.5005 23.265C95.1551 23.6597 94.8345 24.042 94.5385 24.412C94.2671 24.782 93.9465 25.2137 93.5765 25.707C93.2558 26.1263 92.8118 26.7307 92.2445 27.52C91.6771 28.3093 91.1098 29.074 90.5425 29.814C90.9618 29.5673 91.5168 29.222 92.2075 28.778C92.8981 28.334 93.5271 27.9023 94.0945 27.483C94.5138 27.1623 94.8961 26.854 95.2415 26.558C95.6115 26.262 95.9938 25.9413 96.3885 25.596C96.5858 25.3987 96.7338 25.337 96.8325 25.411C96.8818 25.4603 96.8571 25.5467 96.7585 25.67C96.6598 25.7687 96.5611 25.8673 96.4625 25.966C96.1911 26.2373 95.8581 26.521 95.4635 26.817C95.0935 27.113 94.6988 27.4337 94.2795 27.779C93.6135 28.2723 92.9105 28.741 92.1705 29.185C91.4551 29.6537 90.8015 30.0607 90.2095 30.406C89.8148 30.998 89.3708 31.6147 88.8775 32.256C88.4088 32.8973 87.9401 33.5263 87.4715 34.143C87.0028 34.7597 86.5588 35.3147 86.1395 35.808C85.7448 36.326 85.4118 36.733 85.1405 37.029C83.8825 38.4103 82.5751 39.6437 81.2185 40.729C79.8618 41.839 78.6285 42.6777 77.5185 43.245C76.5565 43.763 75.7055 44.022 74.9655 44.022C74.7435 44.022 74.5215 43.9973 74.2995 43.948C74.0528 43.8987 73.8431 43.8123 73.6705 43.689C73.4978 43.5903 73.3745 43.4423 73.3005 43.245C73.2018 43.0477 73.1771 42.7887 73.2265 42.468C73.3005 41.9253 73.5965 41.321 74.1145 40.655C74.6325 40.0137 75.2615 39.3723 76.0015 38.731C76.7415 38.0897 77.5308 37.4607 78.3695 36.844C79.2081 36.252 79.9851 35.7217 80.7005 35.253C81.5391 34.7103 82.2915 34.2417 82.9575 33.847C83.5988 33.4523 84.2031 33.0823 84.7705 32.737C85.3378 32.3917 85.8928 32.0587 86.4355 31.738C86.9781 31.4173 87.5701 31.0597 88.2115 30.665C88.3841 30.443 88.5815 30.1717 88.8035 29.851C89.0255 29.555 89.2475 29.2467 89.4695 28.926C89.7161 28.6053 89.9381 28.297 90.1355 28.001C90.3575 27.6803 90.5425 27.409 90.6905 27.187L90.6535 27.15C90.4068 27.372 90.1231 27.6063 89.8025 27.853C89.4818 28.075 89.1365 28.2847 88.7665 28.482C88.4211 28.6793 88.0635 28.852 87.6935 29C87.3481 29.1233 87.0028 29.1973 86.6575 29.222C86.2381 29.2467 85.8681 29.1603 85.5475 28.963C85.2268 28.7657 85.0911 28.3587 85.1405 27.742C85.1898 27.4707 85.2885 27.187 85.4365 26.891C85.5845 26.5703 85.8311 26.2127 86.1765 25.818L86.1395 25.781C86.0901 25.8303 86.0285 25.892 85.9545 25.966C85.8805 26.04 85.7818 26.1263 85.6585 26.225C85.4858 26.3483 85.3748 26.3853 85.3255 26.336C85.2761 26.2867 85.3131 26.2003 85.4365 26.077C85.5598 25.929 85.7201 25.7563 85.9175 25.559C85.9668 25.5097 86.1025 25.3987 86.3245 25.226C86.5465 25.0287 86.7561 24.8683 86.9535 24.745C87.1508 24.6217 87.3851 24.4737 87.6565 24.301C87.9525 24.1037 88.2855 23.9063 88.6555 23.709ZM100.205 22.599C99.3419 23.3883 98.5773 24.079 97.9113 24.671C97.2699 25.263 96.8013 25.6947 96.5053 25.966C96.1846 26.262 95.9873 26.373 95.9133 26.299C95.8639 26.2497 95.8886 26.1633 95.9873 26.04C96.0859 25.9167 96.2339 25.7687 96.4313 25.596C96.8506 25.226 97.2823 24.8313 97.7263 24.412C98.1949 23.9927 98.6019 23.6103 98.9473 23.265C99.2926 22.9443 99.7859 22.5003 100.427 21.933C101.069 21.341 101.698 20.7613 102.314 20.194C102.512 19.9967 102.734 19.824 102.98 19.676C103.227 19.528 103.486 19.454 103.757 19.454C104.177 19.454 104.349 19.5157 104.275 19.639C104.226 19.7623 104.041 20.009 103.72 20.379C103.178 21.0203 102.536 21.7973 101.796 22.71C101.081 23.598 100.304 24.5847 99.4653 25.67C98.6513 26.7307 97.7879 27.853 96.8753 29.037C95.9873 30.221 95.0993 31.4173 94.2113 32.626C93.3973 33.736 92.7189 34.6733 92.1763 35.438C91.6089 36.2027 91.0909 36.918 90.6223 37.584C90.1536 38.25 89.6849 38.9283 89.2163 39.619C88.7476 40.3343 88.2049 41.173 87.5883 42.135C87.4403 42.3817 87.3539 42.5543 87.3293 42.653C87.3046 42.7517 87.3169 42.8257 87.3663 42.875C87.4649 42.9737 87.6253 42.8997 87.8473 42.653C87.9706 42.505 88.1433 42.283 88.3653 41.987C88.5626 41.7157 88.7969 41.395 89.0683 41.025C89.3396 40.655 89.6233 40.2603 89.9193 39.841C90.1906 39.4217 90.4619 39.027 90.7333 38.657C91.1279 38.0897 91.7199 37.288 92.5093 36.252C93.2739 35.216 94.1003 34.106 94.9883 32.922C95.7529 31.9107 96.5053 30.924 97.2453 29.962C98.0099 29 98.7499 28.0997 99.4653 27.261C99.9586 26.6937 100.501 26.1263 101.093 25.559C101.685 24.967 102.228 24.486 102.721 24.116C103.215 23.746 103.745 23.413 104.312 23.117C104.88 22.821 105.41 22.673 105.903 22.673C106.717 22.673 107.087 22.9937 107.013 23.635C106.964 23.9557 106.779 24.3133 106.458 24.708C106.162 25.078 105.842 25.4603 105.496 25.855C105.2 26.2003 104.941 26.5087 104.719 26.78C104.497 27.0267 104.325 27.2487 104.201 27.446C103.93 27.8653 103.893 28.149 104.09 28.297C104.288 28.445 104.621 28.408 105.089 28.186C105.311 28.0627 105.558 27.9147 105.829 27.742C106.125 27.5693 106.446 27.3473 106.791 27.076C107.137 26.8047 107.445 26.558 107.716 26.336C107.988 26.0893 108.247 25.855 108.493 25.633C108.592 25.5343 108.691 25.448 108.789 25.374C108.913 25.3 108.999 25.2877 109.048 25.337C109.098 25.3863 109.073 25.4727 108.974 25.596C108.876 25.6947 108.802 25.7687 108.752 25.818C108.654 25.9167 108.506 26.0523 108.308 26.225C108.136 26.373 107.938 26.5457 107.716 26.743C107.519 26.9157 107.309 27.0883 107.087 27.261C106.865 27.4337 106.668 27.594 106.495 27.742C106.101 28.038 105.607 28.3587 105.015 28.704C104.423 29.0493 103.807 29.222 103.165 29.222C102.697 29.222 102.364 29.111 102.166 28.889C101.994 28.667 101.932 28.4203 101.981 28.149C102.031 27.7543 102.228 27.335 102.573 26.891C102.919 26.447 103.264 26.04 103.609 25.67C103.905 25.3247 104.214 24.9793 104.534 24.634C104.855 24.2887 105.077 24.0173 105.2 23.82C105.348 23.5733 105.348 23.413 105.2 23.339C105.126 23.2897 105.003 23.2897 104.83 23.339C104.682 23.3883 104.534 23.45 104.386 23.524C103.794 23.82 103.178 24.2147 102.536 24.708C101.92 25.1767 101.254 25.8057 100.538 26.595C100.242 26.9157 99.8846 27.3227 99.4653 27.816C99.0706 28.3093 98.6266 28.852 98.1333 29.444C97.6646 30.036 97.1713 30.6527 96.6533 31.294C96.1599 31.96 95.6666 32.626 95.1733 33.292C94.3593 34.402 93.5576 35.4873 92.7683 36.548C91.9543 37.6333 91.2636 38.583 90.6963 39.397C90.4003 39.841 90.1043 40.2727 89.8083 40.692C89.4876 41.136 89.1916 41.543 88.9203 41.913C88.6243 42.3077 88.3653 42.6407 88.1433 42.912C87.8966 43.208 87.6869 43.43 87.5143 43.578C87.3663 43.7013 87.2059 43.8 87.0333 43.874C86.8359 43.9727 86.6386 43.9973 86.4413 43.948C86.0219 43.874 85.8123 43.615 85.8123 43.171C85.8123 42.7517 85.9603 42.2707 86.2563 41.728C86.5276 41.1853 86.8483 40.6303 87.2183 40.063C87.5636 39.545 87.9089 39.0393 88.2543 38.546C88.5749 38.0527 88.9326 37.5223 89.3273 36.955C89.7219 36.4123 90.1659 35.7957 90.6593 35.105C91.1526 34.439 91.7323 33.662 92.3983 32.774C92.8423 32.1573 93.4096 31.3927 94.1003 30.48C94.7909 29.5673 95.5186 28.63 96.2833 27.668C97.0233 26.6813 97.7386 25.744 98.4293 24.856C99.1446 23.9433 99.7366 23.191 100.205 22.599Z" fill="white"/>
<path d="M12.4324 68.232C12.4324 67.8867 12.5064 67.529 12.6544 67.159C12.8024 66.789 12.9874 66.4437 13.2094 66.123C12.7408 65.7777 12.3584 65.3707 12.0624 64.902C11.7664 64.4087 11.6184 63.8907 11.6184 63.348C11.6184 62.608 11.8774 62.016 12.3954 61.572C12.9381 61.128 13.6041 60.8813 14.3934 60.832C15.1088 60.7827 15.8858 60.9307 16.7244 61.276C17.5878 61.6213 18.3154 62.1517 18.9074 62.867C19.3761 62.793 19.8324 62.7313 20.2764 62.682C20.7451 62.6327 21.2014 62.6203 21.6454 62.645C22.9034 62.6943 23.8531 62.9533 24.4944 63.422C25.1358 63.866 25.4564 64.384 25.4564 64.976C25.4564 65.3953 25.3084 65.79 25.0124 66.16C24.7164 66.5053 24.3094 66.8137 23.7914 67.085C23.2734 67.3563 22.6814 67.5783 22.0154 67.751C21.3494 67.899 20.6464 67.973 19.9064 67.973C18.9444 67.973 18.0194 67.899 17.1314 67.751C16.2434 67.5783 15.4418 67.3193 14.7264 66.974C14.6278 67.0973 14.5168 67.2577 14.3934 67.455C14.2948 67.6523 14.2208 67.8497 14.1714 68.047C14.0234 68.4663 13.9864 68.861 14.0604 69.231C14.2578 69.1817 14.5414 69.1447 14.9114 69.12C15.2814 69.0953 15.6021 69.0953 15.8734 69.12C16.4161 69.1447 16.8848 69.231 17.2794 69.379C17.6988 69.5023 17.8961 69.7243 17.8714 70.045C17.8714 70.3163 17.6494 70.5013 17.2054 70.6C16.7614 70.6987 16.3051 70.748 15.8364 70.748C15.2691 70.748 14.6894 70.6617 14.0974 70.489C13.5301 70.3163 13.1231 70.0697 12.8764 69.749C12.3831 69.9463 11.8281 70.2423 11.2114 70.637C10.5948 71.0317 10.0274 71.4757 9.50942 71.969C8.91742 72.5363 8.41176 73.1777 7.99242 73.893C7.59776 74.6083 7.37576 75.3237 7.32642 76.039C7.27709 76.9023 7.53609 77.5683 8.10342 78.037C8.69542 78.5057 9.44776 78.74 10.3604 78.74C11.4704 78.74 12.4571 78.5427 13.3204 78.148C14.2084 77.7533 15.0224 77.3217 15.7624 76.853C16.1818 76.557 16.6134 76.224 17.0574 75.854C17.5261 75.4593 17.8468 75.1633 18.0194 74.966C18.0688 74.9167 18.1304 74.855 18.2044 74.781C18.2784 74.707 18.3524 74.6947 18.4264 74.744C18.4758 74.7933 18.4758 74.8673 18.4264 74.966C18.4018 75.04 18.3524 75.1017 18.2784 75.151C18.1798 75.2497 18.0318 75.3853 17.8344 75.558C17.6618 75.7307 17.4644 75.9157 17.2424 76.113C17.0204 76.3103 16.7861 76.5077 16.5394 76.705C16.3174 76.8777 16.1078 77.0257 15.9104 77.149C15.1458 77.6917 14.2948 78.1603 13.3574 78.555C12.4448 78.9743 11.4334 79.2087 10.3234 79.258C8.72009 79.3073 7.43742 79.0607 6.47542 78.518C5.53809 78 5.06942 77.149 5.06942 75.965C5.06942 75.299 5.24209 74.633 5.58742 73.967C5.95742 73.301 6.47542 72.6843 7.14142 72.117C7.80742 71.525 8.60909 71.007 9.54642 70.563C10.5084 70.0943 11.5691 69.7243 12.7284 69.453C12.5311 69.1323 12.4324 68.7377 12.4324 68.269V68.232ZM19.8694 67.603C20.4614 67.603 21.0411 67.5413 21.6084 67.418C22.1758 67.2947 22.6691 67.122 23.0884 66.9C23.5324 66.678 23.8901 66.4067 24.1614 66.086C24.4328 65.7653 24.5684 65.3953 24.5684 64.976C24.6178 64.532 24.4328 64.1003 24.0134 63.681C23.5941 63.237 22.8418 62.9903 21.7564 62.941C20.9424 62.941 20.1038 63.089 19.2404 63.385C19.4871 63.8783 19.6474 64.421 19.7214 65.013C19.7708 65.3337 19.7831 65.5803 19.7584 65.753C19.7338 65.9257 19.6968 65.9997 19.6474 65.975C19.5981 65.9503 19.5734 65.901 19.5734 65.827C19.5981 65.7283 19.5611 65.531 19.4624 65.235C19.3884 64.939 19.2774 64.6553 19.1294 64.384C18.9814 64.1127 18.8211 63.8537 18.6484 63.607C18.3031 63.7797 17.8714 64.0387 17.3534 64.384C16.8354 64.7293 16.3668 65.0993 15.9474 65.494C15.5774 65.8393 15.2321 66.2217 14.9114 66.641C15.5774 66.9863 16.3421 67.233 17.2054 67.381C18.0688 67.529 18.9444 67.603 19.8324 67.603H19.8694ZM18.2044 63.015C17.7111 62.4477 17.1068 61.9913 16.3914 61.646C15.7008 61.276 15.0101 61.1157 14.3194 61.165C13.6781 61.2143 13.1354 61.424 12.6914 61.794C12.2474 62.1393 12.0254 62.645 12.0254 63.311C12.0254 63.7797 12.1488 64.2237 12.3954 64.643C12.6668 65.0377 13.0244 65.42 13.4684 65.79C13.6904 65.494 13.9124 65.2473 14.1344 65.05C14.6524 64.5813 15.2691 64.1743 15.9844 63.829C16.7244 63.4837 17.4521 63.2123 18.1674 63.015H18.2044ZM14.1714 69.527C14.2454 69.7737 14.4551 69.971 14.8004 70.119C15.1458 70.267 15.5034 70.3533 15.8734 70.378C16.2188 70.4027 16.5148 70.378 16.7614 70.304C17.0328 70.23 17.1808 70.1067 17.2054 69.934C17.2054 69.7613 17.0451 69.638 16.7244 69.564C16.4284 69.49 16.1448 69.4407 15.8734 69.416C15.6761 69.416 15.4048 69.416 15.0594 69.416C14.7141 69.416 14.4181 69.4407 14.1714 69.49V69.527ZM29.331 74.411C29.257 74.7563 28.4553 75.521 26.926 76.705C25.6927 77.667 24.6567 78.148 23.818 78.148C23.1273 78.148 22.782 77.8397 22.782 77.223C22.782 76.779 23.2137 75.9773 24.077 74.818C22.8437 75.928 22.0173 76.631 21.598 76.927C20.488 77.741 19.563 78.148 18.823 78.148C18.1077 78.148 17.75 77.8643 17.75 77.297C17.75 77.149 17.7623 77.001 17.787 76.853H17.824C18.0213 76.2117 18.4653 75.891 19.156 75.891C19.5753 75.891 19.785 76.0143 19.785 76.261C19.785 76.335 19.7603 76.4583 19.711 76.631C19.6617 76.8037 19.637 76.9393 19.637 77.038C19.637 77.0627 19.6617 77.149 19.711 77.297C19.785 77.3217 19.859 77.334 19.933 77.334C20.4017 77.334 21.5733 76.5447 23.448 74.966C24.6073 73.9547 25.779 72.9433 26.963 71.932C27.1603 71.784 27.555 71.71 28.147 71.71C28.3443 71.71 28.443 71.7593 28.443 71.858C28.443 71.9073 27.814 72.6843 26.556 74.189C25.298 75.6937 24.669 76.6433 24.669 77.038C24.743 77.26 24.8293 77.371 24.928 77.371C25.3473 77.371 26.0997 76.9023 27.185 75.965C28.2703 75.003 28.9857 74.485 29.331 74.411ZM31.8915 72.709C31.7682 72.7583 31.5339 72.9063 31.1885 73.153C30.8679 73.375 30.5719 73.597 30.3005 73.819C30.0292 74.041 29.7825 74.2383 29.5605 74.411C29.3632 74.5837 29.1659 74.7563 28.9685 74.929C28.6725 75.1757 28.4875 75.2743 28.4135 75.225C28.3642 75.1757 28.3765 75.114 28.4505 75.04C28.4999 74.966 28.6232 74.8303 28.8205 74.633C28.9192 74.5343 29.0672 74.3987 29.2645 74.226C29.4865 74.0533 29.7209 73.8683 29.9675 73.671C30.2142 73.4737 30.4609 73.2763 30.7075 73.079C30.9789 72.8817 31.2255 72.709 31.4475 72.561C31.9409 72.2157 32.3355 71.9937 32.6315 71.895C32.9275 71.7963 33.2482 71.747 33.5935 71.747C33.9882 71.747 34.2102 71.784 34.2595 71.858C34.3089 71.932 34.2225 72.0923 34.0005 72.339C33.7539 72.6103 33.4579 72.9433 33.1125 73.338C32.7919 73.7327 32.4465 74.1643 32.0765 74.633C31.7805 75.0277 31.4969 75.41 31.2255 75.78C30.9789 76.15 30.8062 76.4337 30.7075 76.631C30.5595 76.9517 30.5472 77.1737 30.6705 77.297C30.8185 77.445 31.1022 77.4203 31.5215 77.223C31.9409 77.001 32.3602 76.742 32.7795 76.446C33.2235 76.1253 33.7292 75.743 34.2965 75.299C35.1845 74.6083 35.9245 74.0163 36.5165 73.523C37.1085 73.0297 37.7005 72.5487 38.2925 72.08C38.4405 71.9567 38.5885 71.858 38.7365 71.784C38.8845 71.71 39.0942 71.673 39.3655 71.673C39.6862 71.673 39.9082 71.71 40.0315 71.784C40.1795 71.8333 40.1425 71.9937 39.9205 72.265C39.5752 72.6843 39.2545 73.0667 38.9585 73.412C38.6625 73.7327 38.3295 74.1397 37.9595 74.633C37.3182 75.4223 36.8619 76.0513 36.5905 76.52C36.3439 76.9393 36.3069 77.2107 36.4795 77.334C36.6522 77.4573 36.9359 77.4203 37.3305 77.223C37.5279 77.1243 37.7745 76.9763 38.0705 76.779C38.3912 76.5817 38.6995 76.3597 38.9955 76.113C39.3655 75.817 39.6985 75.5457 39.9945 75.299C40.3152 75.0277 40.5742 74.7933 40.7715 74.596C41.0429 74.3247 41.2155 74.2383 41.2895 74.337C41.3389 74.3863 41.3142 74.4727 41.2155 74.596C41.1169 74.6947 41.0429 74.7687 40.9935 74.818C40.7715 75.04 40.4509 75.336 40.0315 75.706C39.6122 76.0513 39.1805 76.3967 38.7365 76.742C38.5639 76.8653 38.3542 77.0133 38.1075 77.186C37.8855 77.3587 37.6265 77.519 37.3305 77.667C37.0592 77.815 36.7632 77.9383 36.4425 78.037C36.1465 78.1603 35.8505 78.222 35.5545 78.222C34.7899 78.222 34.4075 77.926 34.4075 77.334C34.4075 77.0627 34.4569 76.8037 34.5555 76.557C34.6789 76.3103 34.8269 76.0637 34.9995 75.817C35.1969 75.521 35.4559 75.2127 35.7765 74.892C36.0972 74.5467 36.4179 74.2137 36.7385 73.893L36.7015 73.856C36.3315 74.152 35.8629 74.522 35.2955 74.966C34.7529 75.41 34.2349 75.817 33.7415 76.187C32.9769 76.7543 32.2615 77.2353 31.5955 77.63C30.9542 78.0247 30.3499 78.222 29.7825 78.222C29.3879 78.222 29.0795 78.1357 28.8575 77.963C28.6355 77.7903 28.5369 77.5313 28.5615 77.186C28.5862 76.9147 28.6725 76.6557 28.8205 76.409C28.9439 76.1377 29.0919 75.891 29.2645 75.669C29.6345 75.1757 30.0169 74.6947 30.4115 74.226C30.8309 73.7573 31.3242 73.2517 31.8915 72.709ZM42.5961 76.668C42.9414 76.594 43.2621 76.5693 43.5581 76.594C43.9281 76.6433 44.2734 76.7667 44.5941 76.964C44.9394 77.1367 45.1861 77.4327 45.3341 77.852C45.6301 77.6793 45.9754 77.4697 46.3701 77.223C46.7894 76.9517 47.1718 76.6803 47.5171 76.409C47.9364 76.0883 48.3558 75.7553 48.7751 75.41C49.1944 75.0647 49.5274 74.781 49.7741 74.559C50.0454 74.337 50.2181 74.263 50.2921 74.337C50.3661 74.411 50.2058 74.6207 49.8111 74.966C49.5891 75.1633 49.2808 75.4223 48.8861 75.743C48.5161 76.0637 48.1338 76.372 47.7391 76.668C47.3198 76.964 46.9128 77.2477 46.5181 77.519C46.1234 77.7657 45.7534 77.9877 45.4081 78.185C45.4574 78.333 45.4821 78.518 45.4821 78.74C45.4821 79.406 45.2724 80.1337 44.8531 80.923C44.4584 81.737 43.9528 82.5387 43.3361 83.328C42.7441 84.142 42.0904 84.9067 41.3751 85.622C40.6844 86.362 40.0554 86.9787 39.4881 87.472C38.6988 88.1627 37.8724 88.841 37.0091 89.507C36.1211 90.173 35.2454 90.765 34.3821 91.283C33.5188 91.801 32.7048 92.208 31.9401 92.504C31.1754 92.8247 30.5218 92.985 29.9791 92.985C29.3871 92.985 28.9801 92.8493 28.7581 92.578C28.5361 92.3067 28.4251 92.0107 28.4251 91.69C28.4251 90.7773 28.9678 89.7537 30.0531 88.619C31.1384 87.509 32.5074 86.325 34.1601 85.067C35.6154 83.9817 36.9598 83.0443 38.1931 82.255C39.4264 81.4903 40.4871 80.8367 41.3751 80.294C41.8931 79.9733 42.3864 79.665 42.8551 79.369C43.3238 79.0977 43.7678 78.8263 44.1871 78.555C44.2364 78.0617 44.1624 77.667 43.9651 77.371C43.7924 77.075 43.5334 76.927 43.1881 76.927C42.6208 76.927 42.1028 77.0873 41.6341 77.408C41.1901 77.7287 40.8201 78.0247 40.5241 78.296C40.4748 78.3453 40.4131 78.407 40.3391 78.481C40.2404 78.555 40.1541 78.555 40.0801 78.481C40.0061 78.407 39.9938 78.3083 40.0431 78.185C40.0678 78.0617 40.1171 77.9507 40.1911 77.852C40.3144 77.6793 40.5118 77.5067 40.7831 77.334C41.0791 77.1367 41.3998 76.9393 41.7451 76.742C42.4604 76.372 43.0771 76.0637 43.5951 75.817C44.1378 75.5703 44.7298 75.2743 45.3711 74.929C46.0124 74.5343 46.5428 74.1767 46.9621 73.856C47.4061 73.5353 47.7761 73.2023 48.0721 72.857C48.1214 72.8077 48.1584 72.7583 48.1831 72.709C48.2324 72.635 48.2448 72.5733 48.2201 72.524C48.1954 72.4747 48.1214 72.4747 47.9981 72.524C47.5294 72.7953 46.9744 73.0297 46.3331 73.227C45.6918 73.4243 45.1368 73.523 44.6681 73.523C43.7554 73.523 43.1511 73.2887 42.8551 72.82C42.5344 73.1653 42.2014 73.523 41.8561 73.893C41.5108 74.263 41.1901 74.5837 40.8941 74.855C40.7708 74.9783 40.6844 75.0523 40.6351 75.077C40.5858 75.077 40.5364 75.0523 40.4871 75.003C40.4131 74.9537 40.4871 74.818 40.7091 74.596C40.9804 74.3247 41.3011 73.9917 41.6711 73.597C42.0658 73.2023 42.4111 72.8323 42.7071 72.487C42.6824 72.339 42.6948 72.1663 42.7441 71.969C42.7934 71.747 42.9044 71.5373 43.0771 71.34C43.2498 71.1427 43.4471 71.007 43.6691 70.933C43.8911 70.8343 44.1008 70.785 44.2981 70.785C44.4461 70.785 44.5818 70.822 44.7051 70.896C44.8531 70.9453 44.9271 71.0317 44.9271 71.155C44.8531 71.2043 44.7421 71.266 44.5941 71.34C44.4708 71.414 44.3844 71.5497 44.3351 71.747C44.2858 71.895 44.3228 72.0553 44.4461 72.228C44.5694 72.4007 44.8778 72.487 45.3711 72.487C45.8891 72.487 46.4071 72.4377 46.9251 72.339C47.4678 72.2157 47.9488 72.0553 48.3681 71.858C48.5161 71.8087 48.6641 71.7717 48.8121 71.747C48.9601 71.7223 49.0588 71.747 49.1081 71.821C49.2068 71.9197 49.2068 72.0677 49.1081 72.265C49.0094 72.4623 48.9354 72.598 48.8861 72.672C48.6148 73.0173 48.2201 73.412 47.7021 73.856C47.1841 74.3 46.5181 74.744 45.7041 75.188C45.0628 75.5333 44.4954 75.8047 44.0021 76.002C43.5088 76.1993 43.0401 76.4213 42.5961 76.668ZM30.1641 92.578C30.6821 92.578 31.2741 92.4053 31.9401 92.06C32.6061 91.7393 33.3091 91.3077 34.0491 90.765C34.7891 90.2223 35.5414 89.6057 36.3061 88.915C37.0708 88.2243 37.7984 87.509 38.4891 86.769C38.9824 86.251 39.5251 85.6467 40.1171 84.956C40.7091 84.2653 41.2764 83.55 41.8191 82.81C42.3864 82.07 42.8798 81.3547 43.2991 80.664C43.7184 79.998 43.9898 79.4307 44.1131 78.962C43.7184 79.2333 43.2991 79.5047 42.8551 79.776C42.4111 80.0473 41.9794 80.3187 41.5601 80.59C40.6721 81.1573 39.5991 81.848 38.3411 82.662C37.0831 83.476 35.7634 84.401 34.3821 85.437C32.9268 86.547 31.7428 87.6323 30.8301 88.693C29.9174 89.7537 29.4118 90.7157 29.3131 91.579C29.2884 91.8257 29.3254 92.0477 29.4241 92.245C29.5228 92.467 29.7571 92.578 30.1271 92.578H30.1641ZM56.9943 73.079C57.4383 72.6103 57.8206 72.265 58.1413 72.043C58.4866 71.7963 58.8073 71.673 59.1033 71.673C59.498 71.6483 59.72 71.6853 59.7693 71.784C59.8433 71.8827 59.7816 72.043 59.5843 72.265C59.3376 72.5363 59.0293 72.894 58.6593 73.338C58.2893 73.7573 57.907 74.2137 57.5123 74.707C57.2656 75.003 57.0313 75.3113 56.8093 75.632C56.5873 75.928 56.39 76.224 56.2173 76.52C55.9706 76.964 55.9336 77.2477 56.1063 77.371C56.205 77.445 56.3283 77.4573 56.4763 77.408C56.649 77.3587 56.8093 77.297 56.9573 77.223C57.1546 77.1243 57.4013 76.9763 57.6973 76.779C58.018 76.557 58.3263 76.3227 58.6223 76.076C59.017 75.7553 59.3623 75.4717 59.6583 75.225C59.9543 74.9783 60.201 74.7563 60.3983 74.559C60.5216 74.4603 60.6203 74.3863 60.6943 74.337C60.793 74.263 60.867 74.2507 60.9163 74.3C60.9903 74.374 60.83 74.596 60.4353 74.966C60.1886 75.188 59.868 75.4717 59.4733 75.817C59.0786 76.1623 58.7086 76.4707 58.3633 76.742C57.9933 77.038 57.5246 77.3587 56.9573 77.704C56.39 78.0493 55.798 78.222 55.1813 78.222C54.836 78.222 54.577 78.148 54.4043 78C54.2316 77.852 54.133 77.667 54.1083 77.445C54.0836 77.2477 54.1206 77.0257 54.2193 76.779C54.318 76.5323 54.4536 76.3103 54.6263 76.113L54.5893 76.076C54.3426 76.298 54.059 76.5323 53.7383 76.779C53.4176 77.001 53.0723 77.223 52.7023 77.445C52.357 77.6423 51.987 77.815 51.5923 77.963C51.2223 78.111 50.8646 78.1973 50.5193 78.222C50.1 78.2467 49.73 78.1603 49.4093 77.963C49.064 77.741 48.9283 77.334 49.0023 76.742C49.0516 76.4707 49.1503 76.187 49.2983 75.891C49.4463 75.5703 49.693 75.2127 50.0383 74.818L50.0013 74.781C49.952 74.8303 49.8903 74.892 49.8163 74.966C49.7423 75.04 49.6436 75.1263 49.5203 75.225C49.3476 75.3483 49.2366 75.3853 49.1873 75.336C49.1133 75.2373 49.286 75.003 49.7053 74.633C49.7546 74.5837 49.9026 74.4603 50.1493 74.263C50.396 74.041 50.618 73.8683 50.8153 73.745C51.0126 73.6217 51.2593 73.4737 51.5553 73.301C51.8513 73.1037 52.172 72.9063 52.5173 72.709C53.2326 72.339 53.8986 72.0553 54.5153 71.858C55.1566 71.6607 55.724 71.599 56.2173 71.673C56.5873 71.7223 56.834 71.895 56.9573 72.191C57.1053 72.4623 57.1176 72.7583 56.9943 73.079ZM56.0693 72.043C55.6993 72.043 55.206 72.265 54.5893 72.709C53.9726 73.153 53.3313 73.708 52.6653 74.374C51.9006 75.114 51.3456 75.7307 51.0003 76.224C50.6796 76.6927 50.544 77.0503 50.5933 77.297C50.618 77.5437 50.7783 77.667 51.0743 77.667C51.4196 77.667 51.9006 77.4943 52.5173 77.149C53.134 76.8037 53.689 76.3967 54.1823 75.928C54.4783 75.6813 54.7743 75.3977 55.0703 75.077C55.3663 74.7563 55.6376 74.448 55.8843 74.152C56.131 73.856 56.3283 73.5847 56.4763 73.338C56.649 73.0667 56.7353 72.857 56.7353 72.709C56.76 72.265 56.538 72.043 56.0693 72.043ZM70.4655 73.079C70.3915 73.6217 70.1448 74.2013 69.7255 74.818C69.3061 75.4347 68.7265 76.0267 67.9865 76.594C67.2218 77.1613 66.4695 77.5683 65.7295 77.815C65.0141 78.037 64.3481 78.1603 63.7315 78.185C63.3121 78.185 62.9545 78.1357 62.6585 78.037C62.3871 77.963 62.2515 77.7657 62.2515 77.445C62.2761 77.0997 62.4981 76.8283 62.9175 76.631C63.3615 76.4337 63.9411 76.2363 64.6565 76.039C65.1745 75.9157 65.6925 75.78 66.2105 75.632C66.7285 75.484 67.1601 75.336 67.5055 75.188C67.7028 74.9907 67.9248 74.707 68.1715 74.337C68.4181 73.9423 68.5908 73.6093 68.6895 73.338C68.7635 73.1407 68.8005 72.9063 68.8005 72.635C68.8005 72.3637 68.6401 72.228 68.3195 72.228C67.9741 72.228 67.5178 72.376 66.9505 72.672C66.3831 72.968 65.7665 73.375 65.1005 73.893C64.2865 74.5343 63.5711 75.1387 62.9545 75.706C62.3625 76.2733 61.7088 76.9147 60.9935 77.63C60.6728 77.9507 60.3151 78.1233 59.9205 78.148C59.5505 78.1727 59.3531 78.1233 59.3285 78C59.2791 77.9013 59.3038 77.7533 59.4025 77.556C59.5751 77.186 59.7971 76.8037 60.0685 76.409C60.3151 75.9897 60.5988 75.5457 60.9195 75.077C61.0921 74.8303 61.2648 74.596 61.4375 74.374C61.6101 74.1273 61.7951 73.8807 61.9925 73.634H61.9555C61.6841 73.856 61.4375 74.078 61.2155 74.3C60.9935 74.4973 60.7961 74.67 60.6235 74.818C60.4261 74.9907 60.2905 75.04 60.2165 74.966C60.1425 74.9167 60.2041 74.7933 60.4015 74.596C60.6975 74.3247 61.0551 74.004 61.4745 73.634C61.9185 73.2393 62.3501 72.8693 62.7695 72.524C63.4355 71.6607 64.1385 70.7727 64.8785 69.86C65.6185 68.9227 66.4201 67.9607 67.2835 66.974C67.8015 66.3573 68.4428 65.6297 69.2075 64.791C69.9968 63.9523 70.7985 63.126 71.6125 62.312C72.4511 61.4733 73.2405 60.7087 73.9805 60.018C74.7451 59.3027 75.3741 58.7723 75.8675 58.427C76.3608 58.057 76.8665 57.724 77.3845 57.428C77.9271 57.1073 78.4698 56.947 79.0125 56.947C79.5058 56.947 79.8265 57.0827 79.9745 57.354C80.1471 57.6253 80.2088 57.9337 80.1595 58.279C80.0855 58.723 79.8265 59.241 79.3825 59.833C78.9385 60.4003 78.3588 61.0293 77.6435 61.72C76.9528 62.386 76.1635 63.1013 75.2755 63.866C74.4121 64.606 73.5118 65.3583 72.5745 66.123C72.0071 66.5917 71.3905 67.0727 70.7245 67.566C70.0831 68.0593 69.4295 68.565 68.7635 69.083C68.0975 69.601 67.4438 70.119 66.8025 70.637C66.1611 71.155 65.5691 71.6607 65.0265 72.154C64.8538 72.3513 64.6318 72.6473 64.3605 73.042C64.0891 73.412 63.8178 73.782 63.5465 74.152C63.2258 74.596 62.8928 75.0647 62.5475 75.558L62.5845 75.595C63.1271 75.0277 63.6945 74.5097 64.2865 74.041C64.9031 73.5477 65.4951 73.116 66.0625 72.746C66.4325 72.4993 66.9258 72.2403 67.5425 71.969C68.1838 71.6977 68.7758 71.599 69.3185 71.673C69.7378 71.7223 70.0461 71.8703 70.2435 72.117C70.4408 72.339 70.5148 72.6597 70.4655 73.079ZM63.7315 77.778C64.1015 77.7287 64.4221 77.6547 64.6935 77.556C64.9895 77.4327 65.2608 77.297 65.5075 77.149C66.1735 76.7297 66.7408 76.2117 67.2095 75.595C66.9875 75.7183 66.6175 75.854 66.0995 76.002C65.6061 76.1253 65.2115 76.224 64.9155 76.298C64.2495 76.4707 63.7315 76.6433 63.3615 76.816C62.9915 76.9887 62.8188 77.1983 62.8435 77.445C62.8681 77.593 62.9545 77.6917 63.1025 77.741C63.2751 77.7903 63.4848 77.8027 63.7315 77.778ZM65.6185 71.192C66.5065 70.4273 67.2711 69.786 67.9125 69.268C68.5538 68.7253 69.1211 68.2567 69.6145 67.862C70.1325 67.4673 70.5888 67.1097 70.9835 66.789C71.4028 66.4437 71.8221 66.086 72.2415 65.716C73.1295 64.9267 73.9805 64.162 74.7945 63.422C75.6331 62.6573 76.3731 61.9543 77.0145 61.313C77.6558 60.647 78.1738 60.0427 78.5685 59.5C78.9631 58.9573 79.1851 58.4763 79.2345 58.057C79.2591 57.5883 79.0495 57.354 78.6055 57.354C78.2848 57.354 77.9025 57.5143 77.4585 57.835C77.0145 58.131 76.5951 58.464 76.2005 58.834C75.5591 59.4507 74.8191 60.203 73.9805 61.091C73.1418 61.9543 72.2415 62.9657 71.2795 64.125C70.6135 64.939 70.0338 65.642 69.5405 66.234C69.0471 66.8013 68.5908 67.344 68.1715 67.862C67.7768 68.38 67.3698 68.898 66.9505 69.416C66.5558 69.934 66.1118 70.526 65.6185 71.192ZM73.642 77.778C73.8887 77.778 74.308 77.6917 74.9 77.519C75.492 77.3463 76.195 76.9763 77.009 76.409C77.3543 76.1623 77.7243 75.891 78.119 75.595C78.5383 75.2743 78.9207 74.9537 79.266 74.633C79.4633 74.4603 79.599 74.411 79.673 74.485C79.747 74.5837 79.6483 74.744 79.377 74.966C79.1303 75.188 78.7603 75.4963 78.267 75.891C77.7983 76.2857 77.3913 76.594 77.046 76.816C75.5167 77.8273 74.123 78.333 72.865 78.333C71.5083 78.333 70.8547 77.8397 70.904 76.853C70.9287 76.1623 71.2987 75.3977 72.014 74.559L71.977 74.522C71.9277 74.5713 71.8167 74.67 71.644 74.818C71.496 74.966 71.3603 75.0893 71.237 75.188C71.0643 75.336 70.941 75.373 70.867 75.299C70.8177 75.2497 70.83 75.188 70.904 75.114C70.9533 75.04 71.015 74.966 71.089 74.892C71.3357 74.67 71.5577 74.485 71.755 74.337C71.9523 74.1643 72.1867 73.9793 72.458 73.782C72.6553 73.634 72.9143 73.4613 73.235 73.264C73.5803 73.0667 73.9257 72.8693 74.271 72.672C74.8137 72.4007 75.3563 72.1663 75.899 71.969C76.4417 71.747 76.9597 71.636 77.453 71.636H77.49C77.9093 71.636 78.193 71.747 78.341 71.969C78.5137 72.1663 78.5877 72.3883 78.563 72.635C78.5137 73.1283 78.2423 73.56 77.749 73.93C77.2803 74.3 76.7623 74.6207 76.195 74.892C75.6523 75.1633 75.085 75.3977 74.493 75.595C73.9257 75.7923 73.4323 75.9527 73.013 76.076C72.865 76.372 72.791 76.6557 72.791 76.927C72.791 77.4943 73.0747 77.778 73.642 77.778ZM73.235 75.669C73.605 75.5703 74.012 75.4347 74.456 75.262C74.9247 75.0647 75.3563 74.8303 75.751 74.559C76.2197 74.2383 76.5773 73.9053 76.824 73.56C77.0953 73.2147 77.2433 72.9063 77.268 72.635C77.3173 72.2897 77.1693 72.117 76.824 72.117C76.5033 72.117 75.9607 72.4747 75.196 73.19C74.9 73.4613 74.5547 73.856 74.16 74.374C73.7653 74.8673 73.457 75.299 73.235 75.669ZM81.1868 72.894C81.6801 72.4993 82.1241 72.2033 82.5188 72.006C82.9135 71.784 83.3081 71.673 83.7028 71.673C84.0481 71.673 84.2825 71.7593 84.4058 71.932C84.5538 72.1047 84.6278 72.2897 84.6278 72.487C84.6278 72.709 84.5538 72.9433 84.4058 73.19C84.2825 73.4367 84.0975 73.7327 83.8508 74.078C83.5795 74.448 83.2711 74.855 82.9258 75.299C82.5805 75.743 82.3091 76.113 82.1118 76.409L82.1488 76.446C82.5928 76.076 83.1108 75.6443 83.7028 75.151C84.2948 74.6577 84.9115 74.1643 85.5528 73.671C86.1941 73.1777 86.8848 72.7213 87.6248 72.302C88.3648 71.8827 89.0061 71.673 89.5488 71.673C90.0175 71.673 90.3381 71.7717 90.5108 71.969C90.7081 72.1663 90.7821 72.4253 90.7328 72.746C90.6835 73.042 90.5108 73.375 90.2148 73.745C89.9188 74.115 89.6105 74.485 89.2898 74.855C88.9691 75.225 88.7101 75.5333 88.5128 75.78C88.3155 76.0267 88.1305 76.261 87.9578 76.483L87.9948 76.52C88.4141 76.15 88.9321 75.706 89.5488 75.188C90.1901 74.67 90.8315 74.1643 91.4728 73.671C92.1141 73.1777 92.8048 72.7213 93.5448 72.302C94.2848 71.8827 94.9385 71.673 95.5058 71.673C95.9251 71.673 96.2335 71.7717 96.4308 71.969C96.6281 72.1417 96.7021 72.376 96.6528 72.672C96.6035 73.0173 96.4185 73.3873 96.0978 73.782C95.7771 74.1767 95.4688 74.559 95.1728 74.929C94.8768 75.2743 94.6301 75.595 94.4328 75.891C94.2355 76.1623 94.0751 76.3843 93.9518 76.557C93.6805 76.9763 93.6311 77.2477 93.8038 77.371C93.9025 77.445 94.0381 77.4573 94.2108 77.408C94.3835 77.3587 94.5438 77.297 94.6918 77.223C94.9138 77.0997 95.1605 76.964 95.4318 76.816C95.7031 76.6433 96.0485 76.3967 96.4678 76.076C96.7885 75.8293 97.1091 75.5703 97.4298 75.299C97.7751 75.003 98.0465 74.7563 98.2438 74.559C98.4905 74.337 98.6508 74.263 98.7248 74.337C98.7741 74.411 98.6755 74.5713 98.4288 74.818C98.2561 74.9907 97.9355 75.2867 97.4668 75.706C97.0228 76.1007 96.6035 76.446 96.2088 76.742C96.0115 76.89 95.7771 77.0503 95.5058 77.223C95.2591 77.3957 94.9878 77.556 94.6918 77.704C94.3958 77.852 94.0875 77.9753 93.7668 78.074C93.4708 78.1727 93.1748 78.222 92.8788 78.222C92.0895 78.222 91.7195 77.9013 91.7688 77.26C91.7935 76.8407 91.9785 76.409 92.3238 75.965C92.6691 75.4963 93.0021 75.0647 93.3228 74.67C93.5941 74.3247 93.8531 74.004 94.0998 73.708C94.3711 73.412 94.6301 73.1283 94.8768 72.857C94.9508 72.7583 95.0001 72.6597 95.0248 72.561C95.0495 72.4623 95.0125 72.3883 94.9138 72.339C94.8151 72.2897 94.6795 72.2897 94.5068 72.339C94.3341 72.3883 94.1491 72.4623 93.9518 72.561C93.6065 72.7337 93.1871 72.9803 92.6938 73.301C92.2005 73.597 91.6578 73.9793 91.0658 74.448C90.6465 74.7687 90.2765 75.0647 89.9558 75.336C89.6351 75.6073 89.3145 75.8787 88.9938 76.15C88.6731 76.3967 88.3401 76.6557 87.9948 76.927C87.6741 77.1983 87.3165 77.4943 86.9218 77.815C86.6258 78.037 86.3051 78.148 85.9598 78.148C85.6638 78.148 85.4788 78.111 85.4048 78.037C85.3308 77.963 85.3555 77.8027 85.4788 77.556C85.6761 77.1613 85.9598 76.6927 86.3298 76.15C86.7245 75.5827 87.0945 75.0893 87.4398 74.67C87.7605 74.2753 88.0688 73.93 88.3648 73.634C88.6608 73.3133 88.8705 73.0543 88.9938 72.857C89.0678 72.7583 89.1048 72.6597 89.1048 72.561C89.1295 72.4623 89.0801 72.3883 88.9568 72.339C88.7841 72.2897 88.4758 72.3637 88.0318 72.561C87.6865 72.7337 87.2548 72.9803 86.7368 73.301C86.2435 73.6217 85.7131 74.004 85.1458 74.448C84.7265 74.7687 84.3565 75.0647 84.0358 75.336C83.7151 75.6073 83.3945 75.8787 83.0738 76.15C82.7531 76.3967 82.4201 76.6557 82.0748 76.927C81.7541 77.1983 81.3965 77.4943 81.0018 77.815C80.7058 78.037 80.3851 78.148 80.0398 78.148C79.7685 78.148 79.5835 78.111 79.4848 78.037C79.3861 77.9877 79.4108 77.8273 79.5588 77.556C79.6821 77.3093 79.9165 76.9393 80.2618 76.446C80.6071 75.928 80.9155 75.4717 81.1868 75.077C81.4581 74.6823 81.7171 74.337 81.9638 74.041C82.2351 73.7203 82.4695 73.4243 82.6668 73.153C82.9135 72.8323 82.9998 72.6227 82.9258 72.524C82.8271 72.4007 82.6421 72.413 82.3708 72.561C82.1488 72.6843 81.9021 72.8323 81.6308 73.005C81.3841 73.1777 81.1498 73.3627 80.9278 73.56C80.6811 73.7573 80.4221 73.9793 80.1508 74.226C79.8795 74.4727 79.6081 74.7193 79.3368 74.966C78.9915 75.262 78.7818 75.373 78.7078 75.299C78.6585 75.225 78.8435 74.9907 79.2628 74.596C79.4848 74.3987 79.7685 74.1397 80.1138 73.819C80.4838 73.4737 80.8415 73.1653 81.1868 72.894ZM105.448 73.079C105.892 72.6103 106.275 72.265 106.595 72.043C106.941 71.7963 107.261 71.673 107.557 71.673C107.952 71.6483 108.174 71.6853 108.223 71.784C108.297 71.8827 108.236 72.043 108.038 72.265C107.792 72.5363 107.483 72.894 107.113 73.338C106.743 73.7573 106.361 74.2137 105.966 74.707C105.72 75.003 105.485 75.3113 105.263 75.632C105.041 75.928 104.844 76.224 104.671 76.52C104.425 76.964 104.388 77.2477 104.56 77.371C104.659 77.445 104.782 77.4573 104.93 77.408C105.103 77.3587 105.263 77.297 105.411 77.223C105.609 77.1243 105.855 76.9763 106.151 76.779C106.472 76.557 106.78 76.3227 107.076 76.076C107.471 75.7553 107.816 75.4717 108.112 75.225C108.408 74.9783 108.655 74.7563 108.852 74.559C108.976 74.4603 109.074 74.3863 109.148 74.337C109.247 74.263 109.321 74.2507 109.37 74.3C109.444 74.374 109.284 74.596 108.889 74.966C108.643 75.188 108.322 75.4717 107.927 75.817C107.533 76.1623 107.163 76.4707 106.817 76.742C106.447 77.038 105.979 77.3587 105.411 77.704C104.844 78.0493 104.252 78.222 103.635 78.222C103.29 78.222 103.031 78.148 102.858 78C102.686 77.852 102.587 77.667 102.562 77.445C102.538 77.2477 102.575 77.0257 102.673 76.779C102.772 76.5323 102.908 76.3103 103.08 76.113L103.043 76.076C102.797 76.298 102.513 76.5323 102.192 76.779C101.872 77.001 101.526 77.223 101.156 77.445C100.811 77.6423 100.441 77.815 100.046 77.963C99.6764 78.111 99.3187 78.1973 98.9734 78.222C98.5541 78.2467 98.1841 78.1603 97.8634 77.963C97.5181 77.741 97.3824 77.334 97.4564 76.742C97.5057 76.4707 97.6044 76.187 97.7524 75.891C97.9004 75.5703 98.1471 75.2127 98.4924 74.818L98.4554 74.781C98.4061 74.8303 98.3444 74.892 98.2704 74.966C98.1964 75.04 98.0977 75.1263 97.9744 75.225C97.8017 75.3483 97.6907 75.3853 97.6414 75.336C97.5674 75.2373 97.7401 75.003 98.1594 74.633C98.2087 74.5837 98.3567 74.4603 98.6034 74.263C98.8501 74.041 99.0721 73.8683 99.2694 73.745C99.4667 73.6217 99.7134 73.4737 100.009 73.301C100.305 73.1037 100.626 72.9063 100.971 72.709C101.687 72.339 102.353 72.0553 102.969 71.858C103.611 71.6607 104.178 71.599 104.671 71.673C105.041 71.7223 105.288 71.895 105.411 72.191C105.559 72.4623 105.572 72.7583 105.448 73.079ZM104.523 72.043C104.153 72.043 103.66 72.265 103.043 72.709C102.427 73.153 101.785 73.708 101.119 74.374C100.355 75.114 99.7997 75.7307 99.4544 76.224C99.1337 76.6927 98.9981 77.0503 99.0474 77.297C99.0721 77.5437 99.2324 77.667 99.5284 77.667C99.8737 77.667 100.355 77.4943 100.971 77.149C101.588 76.8037 102.143 76.3967 102.636 75.928C102.932 75.6813 103.228 75.3977 103.524 75.077C103.82 74.7563 104.092 74.448 104.338 74.152C104.585 73.856 104.782 73.5847 104.93 73.338C105.103 73.0667 105.189 72.857 105.189 72.709C105.214 72.265 104.992 72.043 104.523 72.043Z" fill="white"/>
<path d="M62.8573 39.937C63.3999 39.937 63.8069 40.085 64.0783 40.381C64.3496 40.6523 64.4359 41.01 64.3373 41.454C64.2633 41.7993 64.0906 42.1077 63.8193 42.379C63.5479 42.6503 63.2519 42.749 62.9313 42.675C62.6599 42.6257 62.5119 42.49 62.4873 42.268C62.4873 42.0213 62.5119 41.7747 62.5613 41.528C62.6106 41.3307 62.5859 41.158 62.4873 41.01C62.4133 40.862 62.2653 40.7757 62.0433 40.751C61.6486 40.7017 61.1429 40.8743 60.5263 41.269C59.9096 41.639 59.0586 42.2927 57.9733 43.23C57.2579 43.8713 56.5179 44.5743 55.7533 45.339C54.9886 46.1037 54.2363 46.819 53.4963 47.485C53.7183 47.8057 53.9403 48.151 54.1623 48.521C54.3843 48.891 54.5693 49.298 54.7173 49.742C54.8899 50.186 55.0009 50.6547 55.0503 51.148C55.1243 51.666 55.0996 52.2087 54.9763 52.776C54.8283 53.442 54.5569 54.0587 54.1623 54.626C53.7676 55.218 53.2989 55.7113 52.7563 56.106C52.2136 56.5253 51.6093 56.846 50.9433 57.068C50.2773 57.3147 49.5989 57.438 48.9083 57.438C48.2423 57.438 47.7243 57.3147 47.3543 57.068C47.0089 56.8213 46.7869 56.5993 46.6883 56.402C46.5156 56.0567 46.4909 55.847 46.6143 55.773C46.6636 55.773 46.6883 55.81 46.6883 55.884C46.7129 55.9827 46.7869 56.106 46.9103 56.254C47.0583 56.4513 47.2803 56.624 47.5763 56.772C47.8969 56.92 48.3409 56.994 48.9083 56.994C49.8949 56.994 50.7706 56.6857 51.5353 56.069C52.3246 55.4523 52.8673 54.6507 53.1633 53.664C53.4346 52.7513 53.4839 51.8387 53.3113 50.926C53.1633 50.0133 52.8919 49.1623 52.4973 48.373C52.0779 48.7183 51.6216 49.0637 51.1283 49.409C50.6596 49.7543 50.1786 50.0627 49.6853 50.334C49.1919 50.5807 48.6986 50.7903 48.2053 50.963C47.7119 51.111 47.2309 51.185 46.7623 51.185C46.3429 51.185 45.9853 51.0617 45.6893 50.815C45.3933 50.5437 45.3069 50.1243 45.4303 49.557C45.5536 48.9403 45.9113 48.3853 46.5033 47.892C47.0953 47.374 47.7859 46.8683 48.5753 46.375C48.9946 46.1283 49.3893 45.9063 49.7593 45.709C50.1539 45.5117 50.5486 45.302 50.9433 45.08C50.8446 44.7347 50.7706 44.3647 50.7213 43.97C50.6966 43.5753 50.7213 43.2053 50.7953 42.86C50.8693 42.5393 50.9803 42.2187 51.1283 41.898C51.3009 41.5773 51.4983 41.2937 51.7203 41.047C51.9669 40.7757 52.2383 40.566 52.5343 40.418C52.8549 40.2453 53.2003 40.159 53.5703 40.159C53.9403 40.159 54.2239 40.3193 54.4213 40.64C54.6433 40.9607 54.6556 41.4047 54.4583 41.972C54.2363 42.5393 53.9033 43.0573 53.4593 43.526C53.0153 43.97 52.4973 44.4017 51.9053 44.821C52.0533 45.2403 52.2506 45.635 52.4973 46.005C52.7439 46.3503 53.0029 46.7327 53.2743 47.152C54.0389 46.4367 54.7913 45.6967 55.5313 44.932C56.2713 44.1673 56.9989 43.4643 57.7143 42.823C58.6516 41.9843 59.5396 41.2937 60.3783 40.751C61.2416 40.2083 62.0679 39.937 62.8573 39.937ZM53.4963 40.751C53.1016 40.751 52.7316 40.9607 52.3863 41.38C52.0656 41.7993 51.8436 42.2803 51.7203 42.823C51.6216 43.415 51.6586 43.9823 51.8313 44.525C52.3246 44.1797 52.7686 43.7973 53.1633 43.378C53.5579 42.934 53.8539 42.453 54.0513 41.935C54.1746 41.5897 54.1746 41.306 54.0513 41.084C53.9526 40.862 53.7676 40.751 53.4963 40.751ZM48.0203 50.186C48.4889 50.186 49.1179 49.9887 49.9073 49.594C50.6966 49.1747 51.4859 48.6443 52.2753 48.003C52.0286 47.5837 51.7943 47.152 51.5723 46.708C51.3749 46.264 51.2023 45.82 51.0543 45.376C50.6349 45.672 50.2403 45.9433 49.8703 46.19C49.5249 46.412 49.1919 46.6587 48.8713 46.93C47.8846 47.744 47.3173 48.5087 47.1693 49.224C47.0953 49.5693 47.1569 49.816 47.3543 49.964C47.5516 50.112 47.7736 50.186 48.0203 50.186Z" fill="white"/>
</svg>
